<?xml version="1.0" encoding="utf-8"?><svg viewBox="0 0 108 108" xmlns="http://www.w3.org/2000/svg" xmlns:xlink="http://www.w3.org/1999/xlink"><style>:root>svg{display:none}:root>svg:target{display:block}</style><svg viewBox="0 0 75 30" fill="none" id="Aura-logo" xmlns="http://www.w3.org/2000/svg"><path d="M5.244 18.174H.197L7.056 0h5.176l6.859 18.174h-5.047l-1.165-3.245H6.41l-1.165 3.245Zm2.33-6.62h4.14l-2.07-6.102-2.07 6.102ZM31.525 0h4.66v13.241c0 1.818-.415 3.142-1.243 3.973-.811.813-2.123 1.22-3.934 1.22h-5.953c-1.812 0-3.132-.407-3.96-1.22-.81-.831-1.216-2.155-1.216-3.973V0h4.658v13.241c0 1.039.518 1.558 1.553 1.558h3.883c1.035 0 1.552-.52 1.552-1.558V0ZM39.29 0h10.87c1.812 0 3.123.415 3.934 1.246.829.814 1.243 2.13 1.243 3.947v2.336c0 1.437-.242 2.553-.725 3.35-.466.796-1.216 1.324-2.252 1.583l3.236 5.712h-5.047l-2.977-5.452H43.95v5.452H39.29V0Zm11.388 5.193c0-1.039-.518-1.558-1.553-1.558H43.95v5.452h5.176c1.035 0 1.553-.52 1.553-1.558V5.193ZM61.153 18.174h-5.047L62.965 0h5.176L75 18.174h-5.047l-1.165-3.245h-6.47l-1.165 3.245Zm2.33-6.62h4.14l-2.07-6.102-2.07 6.102ZM.08 28.795c1.084.08 1.939.12 2.564.12a.273.273 0 0 0 .28-.281v-.281H1.202c-.364 0-.655-.11-.874-.33-.219-.22-.328-.512-.328-.876v-.281c0-.364.11-.656.328-.876.22-.22.51-.33.874-.33h2.723v1.045H1.682a.273.273 0 0 0-.28.281.273.273 0 0 0 .28.282h1.442c.363 0 .655.11.874.33.218.219.328.51.328.875v.322c0 .364-.11.656-.328.875-.22.22-.51.33-.874.33-.945 0-1.96-.054-3.044-.16v-1.045ZM7.851 29.92c-.518.053-1.025.08-1.522.08-.363 0-.654-.11-.873-.33-.219-.22-.328-.511-.328-.875v-2.05h-.481V25.66h.48l.16-.964H6.53v.964H7.53v1.085H6.53v1.849a.273.273 0 0 0 .28.28h1.041v1.046ZM10.022 25.821v4.099H8.62v-3.014h-.601v-1.085h2.003ZM8.62 24.214h1.402v1.125H8.62v-1.125ZM14.59 29.84c-.998.106-1.88.16-2.643.16-.363 0-.654-.11-.873-.33-.22-.22-.329-.511-.329-.875v-1.849c0-.402.112-.715.337-.94.23-.23.544-.346.945-.346h2.564v1.085h-2.123c-.214 0-.32.107-.32.322v1.567a.273.273 0 0 0 .28.281c.48 0 1.201-.04 2.162-.12v1.044ZM16.632 28.232v1.688H15.23v-5.626h1.402v2.853h.64l.882-1.487h1.482l-1.202 2.05 1.202 2.21h-1.482l-.921-1.688h-.601ZM21.597 26.585c-.213 0-.32.107-.32.321v.442h1.362v-.442c0-.214-.107-.321-.32-.321h-.722Zm2.284 3.254c-1.031.107-1.966.161-2.804.161-.364 0-.655-.11-.874-.33-.218-.22-.328-.511-.328-.875v-1.93c0-.401.112-.714.336-.94.23-.23.545-.345.946-.345h1.602c.4 0 .713.115.937.346.23.225.345.538.345.94v1.487h-2.764v.321a.273.273 0 0 0 .28.281c.529 0 1.303-.04 2.324-.12v1.004ZM27.202 26.826c-.337 0-.684.08-1.042.24v2.854H24.76v-4.26H26l.08.523c.46-.402.94-.603 1.442-.603h.36v1.246h-.68ZM28.283 28.795c1.084.08 1.939.12 2.564.12a.273.273 0 0 0 .28-.281v-.281h-1.722c-.364 0-.655-.11-.873-.33-.22-.22-.329-.512-.329-.876v-.281c0-.364.11-.656.329-.876.218-.22.51-.33.873-.33h2.724v1.045h-2.244a.273.273 0 0 0-.28.281.273.273 0 0 0 .28.282h1.442c.363 0 .655.11.874.33.218.219.328.51.328.875v.322c0 .364-.11.656-.328.875-.22.22-.51.33-.874.33-.945 0-1.96-.054-3.044-.16v-1.045ZM39.257 29.84c-.998.106-1.88.16-2.643.16-.363 0-.654-.11-.873-.33-.22-.22-.329-.511-.329-.875v-1.849c0-.402.112-.715.337-.94.23-.23.544-.346.945-.346h2.563v1.085h-2.123c-.213 0-.32.107-.32.322v1.567a.273.273 0 0 0 .28.281c.481 0 1.202-.04 2.163-.12v1.044ZM44.223 28.714c0 .402-.115.718-.345.949-.224.224-.536.337-.937.337h-1.843c-.4 0-.715-.113-.945-.337-.224-.23-.336-.547-.336-.949v-1.848c0-.402.112-.715.336-.94.23-.23.545-.346.945-.346h1.843c.4 0 .713.115.937.346.23.225.345.538.345.94v1.848Zm-1.402-1.728c0-.214-.107-.321-.32-.321h-.962c-.214 0-.32.107-.32.321v1.608c0 .214.106.321.32.321h.961c.214 0 .32-.107.32-.321v-1.608ZM47.106 29.92c-.358.053-.7.08-1.026.08-.32 0-.59-.11-.809-.33-.219-.22-.328-.511-.328-.875v-4.5h1.402v4.299a.273.273 0 0 0 .28.28h.48v1.046ZM49.828 29.92c-.358.053-.7.08-1.025.08-.32 0-.59-.11-.81-.33-.218-.22-.328-.511-.328-.875v-4.5h1.402v4.299a.273.273 0 0 0 .28.28h.481v1.046ZM52.03 26.585c-.214 0-.32.107-.32.321v.442h1.361v-.442c0-.214-.106-.321-.32-.321h-.721Zm2.283 3.254c-1.03.107-1.965.161-2.804.161-.363 0-.654-.11-.873-.33-.219-.22-.328-.511-.328-.875v-1.93c0-.401.112-.714.336-.94.23-.23.545-.345.945-.345h1.603c.4 0 .713.115.937.346.23.225.344.538.344.94v1.487H51.71v.321a.273.273 0 0 0 .28.281c.529 0 1.303-.04 2.323-.12v1.004ZM58.956 29.84c-.998.106-1.88.16-2.643.16-.363 0-.654-.11-.873-.33-.22-.22-.329-.511-.329-.875v-1.849c0-.402.112-.715.337-.94.23-.23.544-.346.945-.346h2.563v1.085h-2.123c-.213 0-.32.107-.32.322v1.567a.273.273 0 0 0 .28.281c.481 0 1.202-.04 2.163-.12v1.044ZM62.56 29.92c-.518.053-1.026.08-1.522.08-.363 0-.654-.11-.873-.33-.22-.22-.329-.511-.329-.875v-2.05h-.48V25.66h.48l.16-.964h1.242v.964h1.002v1.085h-1.002v1.849a.273.273 0 0 0 .28.28h1.042v1.046ZM64.73 25.821v4.099h-1.402v-3.014h-.6v-1.085h2.002Zm-1.402-1.607h1.402v1.125h-1.402v-1.125ZM69.86 28.714c0 .402-.115.718-.345.949-.224.224-.537.337-.937.337h-1.843c-.4 0-.715-.113-.945-.337-.224-.23-.336-.547-.336-.949v-1.848c0-.402.112-.715.336-.94.23-.23.545-.346.945-.346h1.843c.4 0 .713.115.937.346.23.225.345.538.345.94v1.848Zm-1.402-1.728c0-.214-.107-.321-.32-.321h-.962c-.214 0-.32.107-.32.321v1.608c0 .214.106.321.32.321h.961c.214 0 .32-.107.32-.321v-1.608ZM72.943 26.745c-.283 0-.603.054-.961.161v3.014H70.58v-4.26h1.241l.08.402c.252-.166.508-.286.77-.361.267-.08.491-.12.673-.12h.36c.363 0 .654.109.873.329.22.22.329.511.329.875v3.135h-1.402v-2.893a.273.273 0 0 0-.28-.282h-.281Z" fill="#07060B"/></svg><svg fill="none" viewBox="0 0 10 8" id="check" xmlns="http://www.w3.org/2000/svg"><path d="M8.95 1.082 4 6.032 1.172 3.204" stroke="#46F4DB" stroke-width="2"/></svg><svg fill="none" viewBox="0 0 30 28" id="check-2" xmlns="http://www.w3.org/2000/svg"><path d="m29.667 14-3.254-3.72.454-4.92-4.814-1.093L19.533 0 15 1.947 10.467 0l-2.52 4.253-4.814 1.08.454 4.934L.333 14l3.254 3.72-.454 4.933 4.814 1.094L10.467 28 15 26.04l4.533 1.947 2.52-4.254 4.814-1.093-.454-4.92L29.667 14Zm-17.214 6.293-5.066-5.08L9.36 13.24l3.093 3.107 7.8-7.827 1.974 1.973-9.774 9.8Z" fill="#46F4DB"/></svg><svg fill="none" viewBox="0 0 108 108" id="clock" xmlns="http://www.w3.org/2000/svg"><path d="M54.327 105.275c28.138 0 50.948-22.81 50.948-50.948 0-28.137-22.81-50.947-50.948-50.947C26.19 3.38 3.38 26.19 3.38 54.327c0 28.138 22.81 50.948 50.947 50.948Z" stroke="#717178" stroke-width="5" stroke-linecap="round" stroke-linejoin="round"/><path d="M54.327 28.854v25.473l12.737 12.737" stroke="#717178" stroke-width="5" stroke-linecap="round" stroke-linejoin="round"/></svg><svg fill="none" viewBox="0 0 28 28" id="images" xmlns="http://www.w3.org/2000/svg"><path d="M27.333 19.333v-16c0-1.466-1.2-2.666-2.666-2.666h-16A2.675 2.675 0 0 0 6 3.333v16C6 20.8 7.2 22 8.667 22h16c1.466 0 2.666-1.2 2.666-2.667ZM12.667 14l2.706 3.613 3.96-4.946 5.334 6.666h-16l4-5.333Zm-12-8v18.667c0 1.466 1.2 2.666 2.666 2.666H22v-2.666H3.333V6H.667Z" fill="#46F4DB"/></svg><svg fill="none" viewBox="0 0 40 40" id="plus" xmlns="http://www.w3.org/2000/svg"><path d="M23.408 16.592H40v6.816H23.408V40h-6.816V23.408H0v-6.816h16.592V0h6.816v16.592Z" fill="#EDEDF2"/></svg><svg fill="none" viewBox="0 0 28 28" id="smile" xmlns="http://www.w3.org/2000/svg"><path d="M13.987.667C6.627.667.667 6.64.667 14s5.96 13.333 13.32 13.333c7.373 0 13.346-5.973 13.346-13.333S21.36.667 13.987.667Zm.013 24C8.107 24.667 3.333 19.893 3.333 14S8.107 3.333 14 3.333 24.667 8.107 24.667 14 19.893 24.667 14 24.667Zm4.667-12c1.106 0 2-.894 2-2 0-1.107-.894-2-2-2-1.107 0-2 .893-2 2 0 1.106.893 2 2 2Zm-9.334 0c1.107 0 2-.894 2-2 0-1.107-.893-2-2-2-1.106 0-2 .893-2 2 0 1.106.894 2 2 2ZM14 21.333c3.107 0 5.747-1.946 6.813-4.666H7.187c1.066 2.72 3.706 4.666 6.813 4.666Z" fill="#46F4DB"/></svg><svg fill="none" viewBox="0 0 29 28" id="wallet" xmlns="http://www.w3.org/2000/svg"><path d="M27.5 23v4.5H.5V.5h27V5H11v18h16.5ZM14 20h15V8H14v12Zm6-3.75A2.247 2.247 0 0 1 17.75 14 2.247 2.247 0 0 1 20 11.75 2.247 2.247 0 0 1 22.25 14 2.247 2.247 0 0 1 20 16.25Z" fill="#07060B"/></svg></svg>